# xmcd
#
# Track frame offsets: 
#        150
#        21969
#        35480
#        55582
#        74550
#        95525
#        118280
#        134797
#        152410
#        172052
#        190655
#        209830
#        238492
#        260062
#        280382
#        299730
#        317802
#        332082
#
# Disc length: 4715 seconds
#
# Revision: 13
# Processed by: cddbd v1.5.2PL0 Copyright (c) Steve Scherf et al.
# Submitted via: ExactAudioCopy v1.3
#
DISCID=30126912
DTITLE=Sting and The Police - The Very Best Of Sting and The Police
DYEAR=2002
DGENRE=Pop
TTITLE0=The Police - Message In A Bottle
TTITLE1=The Police - Can't Stand Losing You
TTITLE2=Sting - Englishman In New York
TTITLE3=The Police - Every Breath You Take
TTITLE4=Sting - Seven Days
TTITLE5=The Police - Walking On The Moon
TTITLE6=Sting - Fields Of Gold
TTITLE7=Sting - Fragile
TTITLE8=The Police - Every Little Thing She Does Is Magic
TTITLE9=The Police - De Do Do Do, De Da Da Da
TTITLE10=Sting - If You Love Somebody Set Them Free
TTITLE11=Sting - Brand New Day
TTITLE12=Sting - Desert Rose
TTITLE13=Sting - If I Ever Lose My Faith In You
TTITLE14=Sting - When We Dance
TTITLE15=The Police - Don't Stand So Close To Me
TTITLE16=The Police - Roxanne
TTITLE17=The Police - So Lonely
EXTD=YEAR: 2002 ID3G:  66
EXTT0=
EXTT1=
EXTT2=
EXTT3=
EXTT4=
EXTT5=
EXTT6=
EXTT7=
EXTT8=
EXTT9=
EXTT10=
EXTT11=
EXTT12=
EXTT13=
EXTT14=
EXTT15=
EXTT16=
EXTT17=
PLAYORDER=
